<?xml version="1.0" encoding="UTF-8"?>
<svg width="786px" height="502px" viewBox="0 0 786 502" version="1.1" xmlns="http://www.w3.org/2000/svg" xmlns:xlink="http://www.w3.org/1999/xlink">
    <!-- Generator: Sketch 51.2 (57519) - http://www.bohemiancoding.com/sketch -->
    <title>Artboard 5</title>
    <desc>Created with Sketch.</desc>
    <defs>
        <path d="M18,160 L203,160 C207.418278,160 211,163.581722 211,168 L211,217 C211,221.418278 207.418278,225 203,225 L18,225 C13.581722,225 10,221.418278 10,217 L10,168 C10,163.581722 13.581722,160 18,160 Z" id="path-1"></path>
        <mask id="mask-2" maskContentUnits="userSpaceOnUse" maskUnits="objectBoundingBox" x="0" y="0" width="201" height="65" fill="white">
            <use xlink:href="#path-1"></use>
        </mask>
        <path d="M466,146 L621,146 C625.418278,146 629,149.581722 629,154 L629,282 C629,286.418278 625.418278,290 621,290 L466,290 C461.581722,290 458,286.418278 458,282 L458,154 C458,149.581722 461.581722,146 466,146 Z" id="path-3"></path>
        <mask id="mask-4" maskContentUnits="userSpaceOnUse" maskUnits="objectBoundingBox" x="0" y="0" width="171" height="144" fill="white">
            <use xlink:href="#path-3"></use>
        </mask>
        <path d="M491,309 L546,309 C550.418278,309 554,312.581722 554,317 L554,366 C554,370.418278 550.418278,374 546,374 L491,374 C486.581722,374 483,370.418278 483,366 L483,317 C483,312.581722 486.581722,309 491,309 Z" id="path-5"></path>
        <mask id="mask-6" maskContentUnits="userSpaceOnUse" maskUnits="objectBoundingBox" x="0" y="0" width="71" height="65" fill="white">
            <use xlink:href="#path-5"></use>
        </mask>
        <path d="M527,326 L655,326 C659.418278,326 663,329.581722 663,334 L663,383 C663,387.418278 659.418278,391 655,391 L527,391 C522.581722,391 519,387.418278 519,383 L519,334 C519,329.581722 522.581722,326 527,326 Z" id="path-7"></path>
        <mask id="mask-8" maskContentUnits="userSpaceOnUse" maskUnits="objectBoundingBox" x="0" y="0" width="144" height="65" fill="white">
            <use xlink:href="#path-7"></use>
        </mask>
        <path d="M481,342 L536,342 C540.418278,342 544,345.581722 544,350 L544,399 C544,403.418278 540.418278,407 536,407 L481,407 C476.581722,407 473,403.418278 473,399 L473,350 C473,345.581722 476.581722,342 481,342 Z" id="path-9"></path>
        <mask id="mask-10" maskContentUnits="userSpaceOnUse" maskUnits="objectBoundingBox" x="0" y="0" width="71" height="65" fill="white">
            <use xlink:href="#path-9"></use>
        </mask>
        <path d="M8,293 L173,293 C177.418278,293 181,296.581722 181,301 L181,350 C181,354.418278 177.418278,358 173,358 L8,358 C3.581722,358 5.41083001e-16,354.418278 0,350 L0,301 C-5.41083001e-16,296.581722 3.581722,293 8,293 Z" id="path-11"></path>
        <mask id="mask-12" maskContentUnits="userSpaceOnUse" maskUnits="objectBoundingBox" x="0" y="0" width="181" height="65" fill="white">
            <use xlink:href="#path-11"></use>
        </mask>
        <path d="M25,414 L348,414 C352.418278,414 356,417.581722 356,422 L356,471 C356,475.418278 352.418278,479 348,479 L25,479 C20.581722,479 17,475.418278 17,471 L17,422 C17,417.581722 20.581722,414 25,414 Z" id="path-13"></path>
        <mask id="mask-14" maskContentUnits="userSpaceOnUse" maskUnits="objectBoundingBox" x="0" y="0" width="339" height="65" fill="white">
            <use xlink:href="#path-13"></use>
        </mask>
        <path d="M216,55 L539,55 C543.418278,55 547,58.581722 547,63 L547,112 C547,116.418278 543.418278,120 539,120 L216,120 C211.581722,120 208,116.418278 208,112 L208,63 C208,58.581722 211.581722,55 216,55 Z" id="path-15"></path>
        <mask id="mask-16" maskContentUnits="userSpaceOnUse" maskUnits="objectBoundingBox" x="0" y="0" width="339" height="65" fill="white">
            <use xlink:href="#path-15"></use>
        </mask>
    </defs>
    <g id="Artboard-5" stroke="none" stroke-width="1" fill="none" fill-rule="evenodd">
        <circle id="Oval-3" fill-opacity="0.05" fill="#333333" fill-rule="nonzero" cx="542" cy="388" r="107"></circle>
        <path d="M183.350571,29.7071571 L249.647853,77.8571099 C251.050322,78.8756858 251.63718,80.6816423 251.101374,82.3300742 L225.778667,160.236482 C225.24304,161.884362 223.70732,163 221.974576,163 L140.025424,163 C138.29268,163 136.75696,161.884362 136.221333,160.236482 L110.898626,82.3300742 C110.36282,80.6816423 110.949678,78.8756858 112.352147,77.8571099 L178.649429,29.7071571 C180.051138,28.6891333 181.948862,28.6891333 183.350571,29.7071571 Z" id="Polygon-2" fill-opacity="0.05" fill="#333333" fill-rule="nonzero" transform="translate(181.000000, 95.500000) rotate(-60.000000) translate(-181.000000, -95.500000) "></path>
        <path d="M707,291 L722,299.5 L722,316.5 L707,325 L692,316.5 L692,299.5 L707,291 Z" id="Polygon-2" stroke="#333333" stroke-width="2" stroke-dasharray="4" fill-rule="nonzero" transform="translate(707.000000, 308.000000) rotate(-75.000000) translate(-707.000000, -308.000000) "></path>
        <g id="Group-2" transform="translate(60.000000, 6.000000)">
            <rect id="Rectangle-30" stroke="#333333" fill="#FFFFFF" fill-rule="nonzero" x="150.5" y="97.5" width="377" height="338" rx="8"></rect>
            <path d="M170,113 L509,113 C513.418278,113 517,116.581722 517,121 L517,170 C517,174.418278 513.418278,178 509,178 L170,178 C165.581722,178 162,174.418278 162,170 L162,121 C162,116.581722 165.581722,113 170,113 Z" id="Rectangle-30" fill-opacity="0.05" fill="#FD3724" fill-rule="nonzero"></path>
            <path d="M170,192 L325,192 C329.418278,192 333,195.581722 333,200 L333,249 C333,253.418278 329.418278,257 325,257 L170,257 C165.581722,257 162,253.418278 162,249 L162,200 C162,195.581722 165.581722,192 170,192 Z" id="Rectangle-30" fill-opacity="0.05" fill="#FD3724" fill-rule="nonzero"></path>
            <path d="M170,271 L325,271 C329.418278,271 333,274.581722 333,279 L333,328 C333,332.418278 329.418278,336 325,336 L170,336 C165.581722,336 162,332.418278 162,328 L162,279 C162,274.581722 165.581722,271 170,271 Z" id="Rectangle-30" fill-opacity="0.05" fill="#FD3724" fill-rule="nonzero"></path>
            <path d="M170,350 L509,350 C513.418278,350 517,353.581722 517,358 L517,407 C517,411.418278 513.418278,415 509,415 L170,415 C165.581722,415 162,411.418278 162,407 L162,358 C162,353.581722 165.581722,350 170,350 Z" id="Rectangle-30" fill-opacity="0.05" fill="#FD3724" fill-rule="nonzero"></path>
            <g id="Group" transform="translate(156.000000, 139.000000)" fill-rule="nonzero" stroke="#FFFFFF">
                <polygon id="Polygon-4" points="18.5 0 37 10.25 37 30.75 18.5 41 1.56052948e-12 30.75 1.54853907e-12 10.25"></polygon>
                <polygon id="Polygon-4" points="37.5 32 56 42.25 56 62.75 37.5 73 19 62.75 19 42.25"></polygon>
                <polygon id="Polygon-4" points="18.5 63 37 73.25 37 93.75 18.5 104 1.56896718e-12 93.75 1.55742086e-12 73.25"></polygon>
                <polygon id="Polygon-4" points="37.5 96 56 106.25 56 126.75 37.5 137 19 126.75 19 106.25"></polygon>
                <polygon id="Polygon-4" points="18.5 128 37 138.25 37 158.75 18.5 169 1.56896718e-12 158.75 1.55742086e-12 138.25"></polygon>
                <polygon id="Polygon-4" points="37.5 160 56 170.25 56 190.75 37.5 201 19 190.75 19 170.25"></polygon>
                <polygon id="Polygon-4" points="18.5 191 37 201.25 37 221.75 18.5 232 1.56896718e-12 221.75 1.55742086e-12 201.25"></polygon>
                <polygon id="Polygon-4" points="37.5 223 56 233.25 56 253.75 37.5 264 19 253.75 19 233.25"></polygon>
                <polygon id="Polygon-4" points="56.5 0 75 10.25 75 30.75 56.5 41 38 30.75 38 10.25"></polygon>
                <polygon id="Polygon-4" points="76.5 32 95 42.25 95 62.75 76.5 73 58 62.75 58 42.25"></polygon>
                <polygon id="Polygon-4" points="56.5 63 75 73.25 75 93.75 56.5 104 38 93.75 38 73.25"></polygon>
                <polygon id="Polygon-4" points="76.5 96 95 106.25 95 126.75 76.5 137 58 126.75 58 106.25"></polygon>
                <polygon id="Polygon-4" points="56.5 128 75 138.25 75 158.75 56.5 169 38 158.75 38 138.25"></polygon>
                <polygon id="Polygon-4" points="76.5 160 95 170.25 95 190.75 76.5 201 58 190.75 58 170.25"></polygon>
                <polygon id="Polygon-4" points="56.5 191 75 201.25 75 221.75 56.5 232 38 221.75 38 201.25"></polygon>
                <polygon id="Polygon-4" points="76.5 223 95 233.25 95 253.75 76.5 264 58 253.75 58 233.25"></polygon>
                <polygon id="Polygon-4" points="94.5 0 113 10.25 113 30.75 94.5 41 76 30.75 76 10.25"></polygon>
                <polygon id="Polygon-4" points="113.5 32 132 42.25 132 62.75 113.5 73 95 62.75 95 42.25"></polygon>
                <polygon id="Polygon-4" points="94.5 63 113 73.25 113 93.75 94.5 104 76 93.75 76 73.25"></polygon>
                <polygon id="Polygon-4" points="113.5 96 132 106.25 132 126.75 113.5 137 95 126.75 95 106.25"></polygon>
                <polygon id="Polygon-4" points="94.5 128 113 138.25 113 158.75 94.5 169 76 158.75 76 138.25"></polygon>
                <polygon id="Polygon-4" points="113.5 160 132 170.25 132 190.75 113.5 201 95 190.75 95 170.25"></polygon>
                <polygon id="Polygon-4" points="94.5 191 113 201.25 113 221.75 94.5 232 76 221.75 76 201.25"></polygon>
                <polygon id="Polygon-4" points="113.5 223 132 233.25 132 253.75 113.5 264 95 253.75 95 233.25"></polygon>
                <polygon id="Polygon-4" points="133.5 0 152 10.25 152 30.75 133.5 41 115 30.75 115 10.25"></polygon>
                <polygon id="Polygon-4" points="152.5 32 171 42.25 171 62.75 152.5 73 134 62.75 134 42.25"></polygon>
                <polygon id="Polygon-4" points="133.5 63 152 73.25 152 93.75 133.5 104 115 93.75 115 73.25"></polygon>
                <polygon id="Polygon-4" points="152.5 96 171 106.25 171 126.75 152.5 137 134 126.75 134 106.25"></polygon>
                <polygon id="Polygon-4" points="133.5 128 152 138.25 152 158.75 133.5 169 115 158.75 115 138.25"></polygon>
                <polygon id="Polygon-4" points="152.5 160 171 170.25 171 190.75 152.5 201 134 190.75 134 170.25"></polygon>
                <polygon id="Polygon-4" points="133.5 191 152 201.25 152 221.75 133.5 232 115 221.75 115 201.25"></polygon>
                <polygon id="Polygon-4" points="152.5 223 171 233.25 171 253.75 152.5 264 134 253.75 134 233.25"></polygon>
                <polygon id="Polygon-4" points="171.5 0 190 10.25 190 30.75 171.5 41 153 30.75 153 10.25"></polygon>
                <polygon id="Polygon-4" points="191.5 32 210 42.25 210 62.75 191.5 73 173 62.75 173 42.25"></polygon>
                <polygon id="Polygon-4" points="171.5 63 190 73.25 190 93.75 171.5 104 153 93.75 153 73.25"></polygon>
                <polygon id="Polygon-4" points="191.5 96 210 106.25 210 126.75 191.5 137 173 126.75 173 106.25"></polygon>
                <polygon id="Polygon-4" points="171.5 128 190 138.25 190 158.75 171.5 169 153 158.75 153 138.25"></polygon>
                <polygon id="Polygon-4" points="191.5 160 210 170.25 210 190.75 191.5 201 173 190.75 173 170.25"></polygon>
                <polygon id="Polygon-4" points="171.5 191 190 201.25 190 221.75 171.5 232 153 221.75 153 201.25"></polygon>
                <polygon id="Polygon-4" points="191.5 223 210 233.25 210 253.75 191.5 264 173 253.75 173 233.25"></polygon>
                <polygon id="Polygon-4" points="210.5 0 229 10.25 229 30.75 210.5 41 192 30.75 192 10.25"></polygon>
                <polygon id="Polygon-4" points="228.5 32 247 42.25 247 62.75 228.5 73 210 62.75 210 42.25"></polygon>
                <polygon id="Polygon-4" points="210.5 63 229 73.25 229 93.75 210.5 104 192 93.75 192 73.25"></polygon>
                <polygon id="Polygon-4" points="228.5 96 247 106.25 247 126.75 228.5 137 210 126.75 210 106.25"></polygon>
                <polygon id="Polygon-4" points="210.5 128 229 138.25 229 158.75 210.5 169 192 158.75 192 138.25"></polygon>
                <polygon id="Polygon-4" points="228.5 160 247 170.25 247 190.75 228.5 201 210 190.75 210 170.25"></polygon>
                <polygon id="Polygon-4" points="210.5 191 229 201.25 229 221.75 210.5 232 192 221.75 192 201.25"></polygon>
                <polygon id="Polygon-4" points="228.5 223 247 233.25 247 253.75 228.5 264 210 253.75 210 233.25"></polygon>
                <polygon id="Polygon-4" points="248.5 0 267 10.25 267 30.75 248.5 41 230 30.75 230 10.25"></polygon>
                <polygon id="Polygon-4" points="267.5 32 286 42.25 286 62.75 267.5 73 249 62.75 249 42.25"></polygon>
                <polygon id="Polygon-4" points="248.5 63 267 73.25 267 93.75 248.5 104 230 93.75 230 73.25"></polygon>
                <polygon id="Polygon-4" points="267.5 96 286 106.25 286 126.75 267.5 137 249 126.75 249 106.25"></polygon>
                <polygon id="Polygon-4" points="248.5 128 267 138.25 267 158.75 248.5 169 230 158.75 230 138.25"></polygon>
                <polygon id="Polygon-4" points="267.5 160 286 170.25 286 190.75 267.5 201 249 190.75 249 170.25"></polygon>
                <polygon id="Polygon-4" points="248.5 191 267 201.25 267 221.75 248.5 232 230 221.75 230 201.25"></polygon>
                <polygon id="Polygon-4" points="267.5 223 286 233.25 286 253.75 267.5 264 249 253.75 249 233.25"></polygon>
                <polygon id="Polygon-4" points="286.5 0 305 10.25 305 30.75 286.5 41 268 30.75 268 10.25"></polygon>
                <polygon id="Polygon-4" points="305.5 32 324 42.25 324 62.75 305.5 73 287 62.75 287 42.25"></polygon>
                <polygon id="Polygon-4" points="286.5 63 305 73.25 305 93.75 286.5 104 268 93.75 268 73.25"></polygon>
                <polygon id="Polygon-4" points="305.5 96 324 106.25 324 126.75 305.5 137 287 126.75 287 106.25"></polygon>
                <polygon id="Polygon-4" points="286.5 128 305 138.25 305 158.75 286.5 169 268 158.75 268 138.25"></polygon>
                <polygon id="Polygon-4" points="305.5 160 324 170.25 324 190.75 305.5 201 287 190.75 287 170.25"></polygon>
                <polygon id="Polygon-4" points="286.5 191 305 201.25 305 221.75 286.5 232 268 221.75 268 201.25"></polygon>
                <polygon id="Polygon-4" points="305.5 223 324 233.25 324 253.75 305.5 264 287 253.75 287 233.25"></polygon>
                <polygon id="Polygon-4" points="325.5 0 344 10.25 344 30.75 325.5 41 307 30.75 307 10.25"></polygon>
                <polygon id="Polygon-4" points="343.5 32 362 42.25 362 62.75 343.5 73 325 62.75 325 42.25"></polygon>
                <polygon id="Polygon-4" points="325.5 63 344 73.25 344 93.75 325.5 104 307 93.75 307 73.25"></polygon>
                <polygon id="Polygon-4" points="343.5 96 362 106.25 362 126.75 343.5 137 325 126.75 325 106.25"></polygon>
                <polygon id="Polygon-4" points="325.5 128 344 138.25 344 158.75 325.5 169 307 158.75 307 138.25"></polygon>
                <polygon id="Polygon-4" points="343.5 160 362 170.25 362 190.75 343.5 201 325 190.75 325 170.25"></polygon>
                <polygon id="Polygon-4" points="325.5 191 344 201.25 344 221.75 325.5 232 307 221.75 307 201.25"></polygon>
                <polygon id="Polygon-4" points="343.5 223 362 233.25 362 253.75 343.5 264 325 253.75 325 233.25"></polygon>
            </g>
            <path d="M335.588302,211.914274 L317.750625,224.328252 L335.588302,236.74223 L335.588302,230 L348,230 L348,298 L335.588302,298 L335.588302,291.914274 L317.750625,304.328252 L335.588302,316.74223 L335.588302,310 L348,310 L348,328 C348,331.865993 351.134007,335 355,335 L374,335 L374,344.034101 L367.880173,344.034101 L380.294151,361.871778 L392.708129,344.034101 L386,344.034101 L386,335 L510,335 C513.865993,335 517,331.865993 517,328 L517,200 C517,196.134007 513.865993,193 510,193 L386,193 L386,178.622403 L392.708129,178.622403 L380.294151,160.784726 L367.880173,178.622403 L374,178.622403 L374,193 L355,193 C351.134007,193 348,196.134007 348,200 L348,218 L335.588302,218 L335.588302,211.914274 Z" id="Combined-Shape" stroke-opacity="0.05" stroke="#333333" stroke-width="2" fill="#FAFAFA" fill-rule="nonzero"></path>
            <g id="Group-58" transform="translate(67.000000, 26.000000)" fill="#333333">
                <path d="M19.1978934,46.3636364 C18.4091716,46.3636364 17.6295141,46.1954736 16.9109149,45.8703625 C14.1191416,44.6072992 12.8798773,41.3202045 14.1429407,38.5284312 L25.4315768,13.5769415 C26.4168136,11.3992537 28.5856646,10 30.9758562,10 C33.3660477,10 35.5348988,11.3992537 36.5201355,13.5769415 L47.6546486,38.1877702 C47.993895,38.9376128 48.1693692,39.7511685 48.1693692,40.5741826 C48.1693692,43.7716096 45.5773424,46.3636364 42.3799154,46.3636364 L39.0147831,38.3982684 L22.5630256,38.3982684 L19.1978934,46.3636364 Z M31.1398515,19.4323361 L25.3683495,32.1638997 L36.4039098,32.1638997 L31.1398515,19.4323361 Z" id="Combined-Shape"></path>
                <path d="M6.49090909,40.2531646 L0,40.2531646 L0,60 L20.0909091,60 L20.0909091,53.6202532 L6.49090909,53.6202532 L6.49090909,40.2531646 Z M55.3272727,53.6202532 L41.7272727,53.6202532 L41.7272727,60 L61.8181818,60 L61.8181818,40.2531646 L55.6363636,40.2531646 L55.3272727,40.2531646 L55.3272727,53.6202532 Z M41.7272727,5.7721519 L55.6363636,5.7721519 L55.6363636,19.7468354 L61.8181818,19.7468354 L61.8181818,0 L41.7272727,0 L41.7272727,5.7721519 Z M20.0909091,5.7721519 L20.0909091,0 L0,0 L0,19.7468354 L6.49090909,19.7468354 L6.49090909,5.7721519 L20.0909091,5.7721519 Z" id="Shape" stroke="#333333"></path>
            </g>
            <path d="M58,170 L213,170 C217.418278,170 221,173.581722 221,178 L221,227 C221,231.418278 217.418278,235 213,235 L58,235 C53.581722,235 50,231.418278 50,227 L50,178 C50,173.581722 53.581722,170 58,170 Z" id="Rectangle-30" fill-opacity="0.1" fill="#333333" fill-rule="nonzero"></path>
            <path d="M31,285 L186,285 C190.418278,285 194,288.581722 194,293 L194,342 C194,346.418278 190.418278,350 186,350 L31,350 C26.581722,350 23,346.418278 23,342 L23,293 C23,288.581722 26.581722,285 31,285 Z" id="Rectangle-30" fill-opacity="0.1" fill="#333333" fill-rule="nonzero"></path>
            <use id="Rectangle-30" stroke="#333333" mask="url(#mask-2)" stroke-width="4" fill="#FFFFFF" fill-rule="nonzero" stroke-dasharray="4" xlink:href="#path-1"></use>
            <path d="M446,156 L601,156 C605.418278,156 609,159.581722 609,164 L609,292 C609,296.418278 605.418278,300 601,300 L446,300 C441.581722,300 438,296.418278 438,292 L438,164 C438,159.581722 441.581722,156 446,156 Z" id="Rectangle-30" fill-opacity="0.1" fill="#333333" fill-rule="nonzero"></path>
            <use id="Rectangle-30" stroke="#FD3724" mask="url(#mask-4)" stroke-width="4" fill="#FFFFFF" fill-rule="nonzero" stroke-dasharray="4" xlink:href="#path-3"></use>
            <path d="M480,162 L608,162 C612.418278,162 616,165.581722 616,170 L616,186 C616,190.418278 612.418278,194 608,194 L480,194 C475.581722,194 472,190.418278 472,186 L472,170 C472,165.581722 475.581722,162 480,162 Z" id="Rectangle-30" fill="#FAFAFA" fill-rule="nonzero"></path>
            <path d="M480,201 L559,201 C563.418278,201 567,204.581722 567,209 L567,225 C567,229.418278 563.418278,233 559,233 L480,233 C475.581722,233 472,229.418278 472,225 L472,209 C472,204.581722 475.581722,201 480,201 Z" id="Rectangle-30" fill="#FAFAFA" fill-rule="nonzero"></path>
            <path d="M480,241 L601,241 C605.418278,241 609,244.581722 609,249 L609,265 C609,269.418278 605.418278,273 601,273 L480,273 C475.581722,273 472,269.418278 472,265 L472,249 C472,244.581722 475.581722,241 480,241 Z" id="Rectangle-30" fill="#FAFAFA" fill-rule="nonzero"></path>
            <path d="M481,303 L536,303 C540.418278,303 544,306.581722 544,311 L544,360 C544,364.418278 540.418278,368 536,368 L481,368 C476.581722,368 473,364.418278 473,360 L473,311 C473,306.581722 476.581722,303 481,303 Z" id="Rectangle-30" fill-opacity="0.1" fill="#333333" fill-rule="nonzero"></path>
            <use id="Rectangle-30" stroke="#333333" mask="url(#mask-6)" stroke-width="4" fill="#FFFFFF" fill-rule="nonzero" stroke-dasharray="4" xlink:href="#path-5"></use>
            <path d="M518,322 L639,322 C643.418278,322 647,325.581722 647,330 L647,379 C647,383.418278 643.418278,387 639,387 L518,387 C513.581722,387 510,383.418278 510,379 L510,330 C510,325.581722 513.581722,322 518,322 Z" id="Rectangle-30" fill-opacity="0.1" fill="#333333" fill-rule="nonzero"></path>
            <use id="Rectangle-30" stroke="#333333" mask="url(#mask-8)" stroke-width="4" fill="#FFFFFF" fill-rule="nonzero" stroke-dasharray="4" xlink:href="#path-7"></use>
            <path d="M475,335 L530,335 C534.418278,335 538,338.581722 538,343 L538,392 C538,396.418278 534.418278,400 530,400 L475,400 C470.581722,400 467,396.418278 467,392 L467,343 C467,338.581722 470.581722,335 475,335 Z" id="Rectangle-30" fill-opacity="0.1" fill="#333333" fill-rule="nonzero"></path>
            <use id="Rectangle-30" stroke="#333333" mask="url(#mask-10)" stroke-width="4" fill="#FFFFFF" fill-rule="nonzero" stroke-dasharray="4" xlink:href="#path-9"></use>
            <path d="M489,356 L527,356 C531.418278,356 535,359.581722 535,364 L535,364 C535,368.418278 531.418278,372 527,372 L489,372 C484.581722,372 481,368.418278 481,364 L481,364 C481,359.581722 484.581722,356 489,356 Z" id="Rectangle-30" fill="#FAFAFA" fill-rule="nonzero"></path>
            <path d="M489,377 L527,377 C531.418278,377 535,380.581722 535,385 L535,385 C535,389.418278 531.418278,393 527,393 L489,393 C484.581722,393 481,389.418278 481,385 L481,385 C481,380.581722 484.581722,377 489,377 Z" id="Rectangle-30" fill="#FAFAFA" fill-rule="nonzero"></path>
            <use id="Rectangle-30" stroke="#333333" mask="url(#mask-12)" stroke-width="4" fill="#FFFFFF" fill-rule="nonzero" stroke-dasharray="4" xlink:href="#path-11"></use>
            <path d="M38,404 L361,404 C365.418278,404 369,407.581722 369,412 L369,461 C369,465.418278 365.418278,469 361,469 L38,469 C33.581722,469 30,465.418278 30,461 L30,412 C30,407.581722 33.581722,404 38,404 Z" id="Rectangle-30" fill-opacity="0.1" fill="#333333" fill-rule="nonzero"></path>
            <path d="M213,67 L536,67 C540.418278,67 544,70.581722 544,75 L544,124 C544,128.418278 540.418278,132 536,132 L213,132 C208.581722,132 205,128.418278 205,124 L205,75 C205,70.581722 208.581722,67 213,67 Z" id="Rectangle-30" fill-opacity="0.1" fill="#333333" fill-rule="nonzero"></path>
            <use id="Rectangle-30" stroke="#333333" mask="url(#mask-14)" stroke-width="4" fill="#FFFFFF" fill-rule="nonzero" stroke-dasharray="4" xlink:href="#path-13"></use>
            <use id="Rectangle-30" stroke="#333333" mask="url(#mask-16)" stroke-width="4" fill="#FFFFFF" fill-rule="nonzero" stroke-dasharray="4" xlink:href="#path-15"></use>
            <path d="M459.5,216.5 L427.5,216.5" id="Line-24" stroke="#333333" stroke-linecap="square" fill-rule="nonzero"></path>
            <path d="M252.5,192.25 L209.5,192.25" id="Line-24" stroke="#333333" stroke-linecap="square" fill-rule="nonzero"></path>
            <path d="M244,328 L180,328" id="Line-24" stroke="#333333" stroke-linecap="square" fill-rule="nonzero"></path>
            <path d="M181,387.5 L181,414.5" id="Line-24" stroke="#333333" stroke-linecap="square" fill-rule="nonzero"></path>
            <path d="M377.333333,120.5 L377.333333,137.5" id="Line-24" stroke="#333333" stroke-linecap="square" fill-rule="nonzero"></path>
            <path d="M351.5,137.5 L377.333333,137.5" id="Line-24" stroke="#333333" stroke-linecap="square" fill-rule="nonzero"></path>
            <path d="M472.5,373.5 L427.5,373.5" id="Line-24" stroke="#333333" stroke-linecap="square" fill-rule="nonzero"></path>
            <path id="Line-24" d="M427.5,242 C429.985281,242 432,239.985281 432,237.5 C432,235.014719 429.985281,233 427.5,233 C425.014719,233 423,235.014719 423,237.5 C423,239.985281 425.014719,242 427.5,242 Z M428,233.5 L428,216.5 L428,216 L427,216 L427,216.5 L427,233.5 L427,234 L428,234 L428,233.5 Z" fill="#333333" fill-rule="nonzero"></path>
            <path id="Line-24" d="M253.25,230 C255.735281,230 257.75,227.985281 257.75,225.5 C257.75,223.014719 255.735281,221 253.25,221 C250.764719,221 248.75,223.014719 248.75,225.5 C248.75,227.985281 250.764719,230 253.25,230 Z M253.75,221.5 L253.75,192.5 L253.75,192 L252.75,192 L252.75,192.5 L252.75,221.5 L252.75,222 L253.75,222 L253.75,221.5 Z" fill="#333333" fill-rule="nonzero"></path>
            <path id="Line-24" d="M351.25,157 C353.735281,157 355.75,154.985281 355.75,152.5 C355.75,150.014719 353.735281,148 351.25,148 C348.764719,148 346.75,150.014719 346.75,152.5 C346.75,154.985281 348.764719,157 351.25,157 Z M351.75,148.5 L351.75,138.5 L351.75,138 L350.75,138 L350.75,138.5 L350.75,148.5 L350.75,149 L351.75,149 L351.75,148.5 Z" fill="#333333" fill-rule="nonzero"></path>
            <path id="Line-24" d="M238.25,32 C235.764719,32 233.75,34.0147186 233.75,36.5 C233.75,38.9852814 235.764719,41 238.25,41 C240.735281,41 242.75,38.9852814 242.75,36.5 C242.75,34.0147186 240.735281,32 238.25,32 Z M237.75,40.5 L237.75,55.5 L237.75,56 L238.75,56 L238.75,55.5 L238.75,40.5 L238.75,40 L237.75,40 L237.75,40.5 Z" fill="#333333" fill-rule="nonzero" opacity="0.5"></path>
            <path id="Line-24" d="M277.416667,20.3 C274.931385,20.3 272.916667,22.3147186 272.916667,24.8 C272.916667,27.2852814 274.931385,29.3 277.416667,29.3 C279.901948,29.3 281.916667,27.2852814 281.916667,24.8 C281.916667,22.3147186 279.901948,20.3 277.416667,20.3 Z M276.916667,28.8 L276.916667,55.2 L276.916667,55.7 L277.916667,55.7 L277.916667,55.2 L277.916667,28.8 L277.916667,28.3 L276.916667,28.3 L276.916667,28.8 Z" fill="#333333" fill-rule="nonzero" opacity="0.5"></path>
            <path id="Line-24" d="M317.416667,8.6 C314.931385,8.6 312.916667,10.6147186 312.916667,13.1 C312.916667,15.5852814 314.931385,17.6 317.416667,17.6 C319.901948,17.6 321.916667,15.5852814 321.916667,13.1 C321.916667,10.6147186 319.901948,8.6 317.416667,8.6 Z M316.916667,17.1 L316.916667,54.9 L316.916667,55.4 L317.916667,55.4 L317.916667,54.9 L317.916667,17.1 L317.916667,16.6 L316.916667,16.6 L316.916667,17.1 Z" fill="#333333" fill-rule="nonzero" opacity="0.5"></path>
            <path id="Line-24" d="M357.416667,-3.1 C354.931385,-3.1 352.916667,-1.08528137 352.916667,1.4 C352.916667,3.88528137 354.931385,5.9 357.416667,5.9 C359.901948,5.9 361.916667,3.88528137 361.916667,1.4 C361.916667,-1.08528137 359.901948,-3.1 357.416667,-3.1 Z M356.916667,5.4 L356.916667,54.6 L356.916667,55.1 L357.916667,55.1 L357.916667,54.6 L357.916667,5.4 L357.916667,4.9 L356.916667,4.9 L356.916667,5.4 Z" fill="#333333" fill-rule="nonzero" opacity="0.5"></path>
            <path id="Line-24" d="M397.416667,-3.1 C394.931385,-3.1 392.916667,-1.08528137 392.916667,1.4 C392.916667,3.88528137 394.931385,5.9 397.416667,5.9 C399.901948,5.9 401.916667,3.88528137 401.916667,1.4 C401.916667,-1.08528137 399.901948,-3.1 397.416667,-3.1 Z M396.916667,5.4 L396.916667,54.6 L396.916667,55.1 L397.916667,55.1 L397.916667,54.6 L397.916667,5.4 L397.916667,4.9 L396.916667,4.9 L396.916667,5.4 Z" fill="#333333" fill-rule="nonzero" opacity="0.5"></path>
            <path id="Line-24" d="M437.416667,8.6 C434.931385,8.6 432.916667,10.6147186 432.916667,13.1 C432.916667,15.5852814 434.931385,17.6 437.416667,17.6 C439.901948,17.6 441.916667,15.5852814 441.916667,13.1 C441.916667,10.6147186 439.901948,8.6 437.416667,8.6 Z M436.916667,17.1 L436.916667,54.9 L436.916667,55.4 L437.916667,55.4 L437.916667,54.9 L437.916667,17.1 L437.916667,16.6 L436.916667,16.6 L436.916667,17.1 Z" fill="#333333" fill-rule="nonzero" opacity="0.5"></path>
            <path id="Line-24" d="M477.416667,20.3 C474.931385,20.3 472.916667,22.3147186 472.916667,24.8 C472.916667,27.2852814 474.931385,29.3 477.416667,29.3 C479.901948,29.3 481.916667,27.2852814 481.916667,24.8 C481.916667,22.3147186 479.901948,20.3 477.416667,20.3 Z M476.916667,28.8 L476.916667,55.2 L476.916667,55.7 L477.916667,55.7 L477.916667,55.2 L477.916667,28.8 L477.916667,28.3 L476.916667,28.3 L476.916667,28.8 Z" fill="#333333" fill-rule="nonzero" opacity="0.5"></path>
            <path id="Line-24" d="M518.25,32 C515.764719,32 513.75,34.0147186 513.75,36.5 C513.75,38.9852814 515.764719,41 518.25,41 C520.735281,41 522.75,38.9852814 522.75,36.5 C522.75,34.0147186 520.735281,32 518.25,32 Z M517.75,40.5 L517.75,55.5 L517.75,56 L518.75,56 L518.75,55.5 L518.75,40.5 L518.75,40 L517.75,40 L517.75,40.5 Z" fill="#333333" fill-rule="nonzero" opacity="0.5"></path>
            <path id="Line-24" d="M355,387.5 C355,385.014719 352.985281,383 350.5,383 C348.014719,383 346,385.014719 346,387.5 C346,389.985281 348.014719,392 350.5,392 C352.985281,392 355,389.985281 355,387.5 Z M346.5,387 L181.5,387 L181,387 L181,388 L181.5,388 L346.5,388 L347,388 L347,387 L346.5,387 Z" fill="#333333" fill-rule="nonzero"></path>
            <path id="Line-24" d="M244.208333,300 C241.723052,300 239.708333,302.014719 239.708333,304.5 C239.708333,306.985281 241.723052,309 244.208333,309 C246.693615,309 248.708333,306.985281 248.708333,304.5 C248.708333,302.014719 246.693615,300 244.208333,300 Z M243.708333,308.5 L243.708333,327.5 L243.708333,328 L244.708333,328 L244.708333,327.5 L244.708333,308.5 L244.708333,308 L243.708333,308 L243.708333,308.5 Z" fill="#333333" fill-rule="nonzero"></path>
            <path id="Line-24" d="M427.5,295 C425.014719,295 423,297.014719 423,299.5 C423,301.985281 425.014719,304 427.5,304 C429.985281,304 432,301.985281 432,299.5 C432,297.014719 429.985281,295 427.5,295 Z M427,303.5 L427,372.5 L427,373 L428,373 L428,372.5 L428,303.5 L428,303 L427,303 L427,303.5 Z" fill="#333333" fill-rule="nonzero"></path>
            <text id="FHIR-server" font-family="GothamPro-Bold, Gotham Pro" font-size="24" font-weight="bold" fill="#333333">
                <tspan x="56" y="200">FHIR server</tspan>
            </text>
            <text id="Your-Service" font-family="GothamPro-Bold, Gotham Pro" font-size="24" font-weight="bold" line-spacing="32" fill="#FD3724">
                <tspan x="484" y="204">Your </tspan>
                <tspan x="484" y="236">Service</tspan>
            </text>
            <text id="API-Gateway" font-family="GothamPro-Bold, Gotham Pro" font-size="24" font-weight="bold" fill="#333333">
                <tspan x="300" y="95">API Gateway</tspan>
            </text>
            <text id="Event-Log" font-family="GothamPro-Bold, Gotham Pro" font-size="24" font-weight="bold" fill="#333333">
                <tspan x="45" y="454">Event Log</tspan>
            </text>
            <text id="Plugins" font-family="GothamPro-Bold, Gotham Pro" font-size="24" font-weight="bold" fill="#333333">
                <tspan x="552" y="367">Plugins</tspan>
            </text>
            <text id="Fhirbase" font-family="GothamPro-Bold, Gotham Pro" font-size="24" font-weight="bold" fill="#333333">
                <tspan x="56" y="333">Fhirbase</tspan>
            </text>
            <circle id="Oval-4" fill-opacity="0.5" fill="#333333" fill-rule="nonzero" cx="192" cy="447" r="6"></circle>
            <circle id="Oval-4" fill-opacity="0.5" fill="#333333" fill-rule="nonzero" cx="224" cy="447" r="6"></circle>
            <circle id="Oval-4" fill-opacity="0.5" fill="#333333" fill-rule="nonzero" cx="256" cy="447" r="6"></circle>
            <circle id="Oval-4" fill="#FD3724" fill-rule="nonzero" cx="288" cy="447" r="6"></circle>
            <circle id="Oval-4" fill-opacity="0.5" fill="#333333" fill-rule="nonzero" cx="320" cy="447" r="6"></circle>
            <g id="db" transform="translate(20.000000, 313.000000)">
                <g id="Group-7" fill="#FFFFFF" stroke="#040404" stroke-width="2">
                    <path d="M0.0208311412,5.17748006 C-2.00971438e-13,5.65079753 -4.54747351e-13,17.1277379 -4.54747351e-13,17.7291667 C-4.54747351e-13,20.6401675 5.774572,23 12.8978676,23 C20.0211631,23 25.7957351,20.6401675 25.7957351,17.7291667 C25.7957351,16.9675031 25.8272241,5.28019205 25.8272241,4.98515829" id="Oval-4"></path>
                    <path d="M0,11.9791667 C0,14.8901675 5.774572,17.25 12.8978676,17.25 C20.0211631,17.25 25.7957351,14.8901675 25.7957351,11.9791667" id="Oval-4"></path>
                    <ellipse id="Oval-4" cx="12.8978676" cy="5.27083333" rx="12.8978676" ry="5.27083333"></ellipse>
                </g>
                <g id="Group-21" transform="translate(17.000000, 14.000000)">
                    <path d="M1.375,4.66666667 L1.375,4.125 C1.375,1.84682541 3.22182541,4.18493883e-16 5.5,0 C7.77817459,-4.18493883e-16 9.625,1.84682541 9.625,4.125 L9.625,4.66666667 L11,4.66666667 L11,14 L0,14 L0,4.66666667 L1.375,4.66666667 Z" id="Combined-Shape" stroke="#FFFFFF" stroke-width="6"></path>
                    <rect id="Rectangle-3" stroke="#EA4A35" stroke-width="3" x="1.5" y="6.16666667" width="8" height="6.33333333"></rect>
                    <path d="M2.5,5.33333333 L2.5,3 C2.5,1.34314575 3.84314575,3.04359188e-16 5.5,0 C7.15685425,-3.04359188e-16 8.5,1.34314575 8.5,3 L8.5,5.33333333" id="Rectangle-4" stroke="#EA4A35" stroke-width="2"></path>
                    <rect id="Rectangle-6" fill="#FFFFFF" fill-rule="nonzero" x="2.0625" y="6.66666667" width="6.875" height="5.33333333"></rect>
                </g>
            </g>
            <g id="api" transform="translate(24.000000, 179.000000)">
                <path d="M0,18.980072 C0,14.9381493 0,9.92317707 0,3.93515547 C4.72362022,3.42570064 8.39777963,2.11398214 11.0224782,0 C13.6172058,2.11063841 17.2763797,3.42068503 22,3.93013987 C22,9.91816147 22,14.9331337 22,18.9750564 C20.4901751,22.6721102 16.8160157,25.6804247 10.9775217,28 C5.18398432,25.6854404 1.50982491,22.6771258 0,18.980072 Z" id="Path-8" stroke="#040404" stroke-width="2" fill="#FFFFFF"></path>
                <g id="Group-22" transform="translate(6.000000, 7.000000)">
                    <rect id="Rectangle-3" stroke="#EA4A35" stroke-width="3" x="0.5" y="6.16666667" width="8" height="6.33333333"></rect>
                    <path d="M1.5,5.33333333 L1.5,3 C1.5,1.34314575 2.84314575,3.04359188e-16 4.5,0 C6.15685425,-3.04359188e-16 7.5,1.34314575 7.5,3 L7.5,5.33333333" id="Rectangle-4" stroke="#EA4A35" stroke-width="2"></path>
                    <rect id="Rectangle-6" fill="#FFFFFF" fill-rule="nonzero" x="1.0625" y="6.66666667" width="6.875" height="5.33333333"></rect>
                </g>
            </g>
            <g id="secty" transform="translate(264.000000, 71.000000)">
                <g id="avatar" fill="#000000" fill-rule="nonzero">
                    <path d="M13.8476516,17.9142857 C13.8833685,17.9142857 13.9190853,17.9142857 13.9619456,17.9142857 C13.9762323,17.9142857 13.990519,17.9142857 14.0048058,17.9142857 C14.0262359,17.9142857 14.0548094,17.9142857 14.0762395,17.9142857 C16.169247,17.8798616 17.8622257,17.1707258 19.1123155,15.8144175 C21.862513,12.8264083 21.4053374,7.70410673 21.3553338,7.21528495 C21.1767495,3.54567915 19.3766202,1.79005161 17.8907992,0.970758757 C16.7835768,0.358010322 15.4906268,0.0275392555 14.047666,0 L13.9976624,0 C13.990519,0 13.9762323,0 13.9690889,0 L13.9262287,0 C13.1333146,0 11.5760599,0.12392665 10.0830955,0.943219501 C8.58298776,1.76251235 6.75428498,3.51813989 6.57570072,7.21528495 C6.52569713,7.70410673 6.06852144,12.8264083 8.81871898,15.8144175 C10.0616654,17.1707258 11.7546442,17.8798616 13.8476516,17.9142857 Z M8.48298058,7.38740529 C8.48298058,7.36675085 8.49012395,7.34609641 8.49012395,7.33232678 C8.72585517,2.39591523 12.3618306,1.86578456 13.9190853,1.86578456 L13.9476588,1.86578456 C13.9619456,1.86578456 13.9833757,1.86578456 14.0048058,1.86578456 C15.9335157,1.90709344 19.2123227,2.66442297 19.4337672,7.33232678 C19.4337672,7.35298122 19.4337672,7.37363566 19.4409105,7.38740529 C19.4480539,7.43559899 19.9480898,12.1172724 17.6764981,14.5820358 C16.7764334,15.5596794 15.5763472,16.0416163 13.9976624,16.055386 C13.9833757,16.055386 13.9762323,16.055386 13.9619456,16.055386 C13.9476588,16.055386 13.9405154,16.055386 13.9262287,16.055386 C12.3546873,16.0416163 11.1474577,15.5596794 10.2545364,14.5820358 C7.99008803,12.1310421 8.47583721,7.42871418 8.48298058,7.38740529 Z" id="Shape"></path>
                    <path d="M26.9982226,25.0463145 C26.9982226,24.9582072 26.991876,24.8941292 26.991876,24.8220414 C26.9537964,23.2361101 26.8712907,19.5275941 24.116869,18.3421506 C21.1910893,17.3969996 18.8111166,15.3144636 18.7857302,15.2904344 C18.398588,14.9460149 17.8654741,15.0661613 17.5925706,15.5547562 C17.319667,16.0433512 17.4148659,16.7161705 17.8020082,17.0605899 C17.9099003,17.156707 20.4358446,19.3754088 23.5964483,20.4006573 C25.0752047,21.0654668 25.2402161,23.0598955 25.2846423,24.8861194 C25.2846423,24.9582072 25.2846423,25.0222852 25.2909889,25.0863633 C25.2973355,25.8072411 25.2592559,26.9205969 25.1577104,27.5613772 C24.1295622,28.2982745 20.0994751,30.8453762 13.9686655,30.8453762 C7.86324225,30.8453762 4.02751153,28.2982745 2.99301674,27.5613772 C2.89147124,26.9205969 1.58646097,21.7370466 4.33453609,20.3926475 C8.42204337,18.5573207 10.0210841,17.1406875 10.1289762,17.0525802 C10.5161185,16.7081608 10.6113174,16.0353415 10.3384138,15.5467465 C10.0655103,15.0581515 9.53239642,14.9380052 9.1452542,15.2824246 C9.11986783,15.3064539 6.75258833,17.3889899 3.87758134,18.3101115 C-0.744986699,20.4006573 0.920068619,27.5934162 1.25643809,28.6667232 C1.31990403,28.8749768 1.43414272,29.0511914 1.58646097,29.1713377 C1.77685878,29.3315328 6.34005974,33 13.9750121,33 C21.6099645,33 26.1731654,29.323523 26.3635632,29.1713377 C26.5095349,29.0511914 26.6301202,28.8749768 26.6935861,28.6667232 C27.0109158,27.6014259 27.0045692,25.4628217 26.9982226,25.0463145 Z" id="Shape"></path>
                </g>
                <g id="Group-21" transform="translate(19.000000, 20.000000)">
                    <path d="M1.25,4.33333333 L1.25,3.75 C1.25,1.67893219 2.92893219,3.80448985e-16 5,0 C7.07106781,-3.80448985e-16 8.75,1.67893219 8.75,3.75 L8.75,4.33333333 L10,4.33333333 L10,13 L0,13 L0,4.33333333 L1.25,4.33333333 Z" id="Combined-Shape" stroke="#FFFFFF" stroke-width="6"></path>
                    <rect id="Rectangle-3" stroke="#EA4A35" stroke-width="3" x="1.5" y="5.83333333" width="7" height="5.66666667"></rect>
                    <path d="M2.27272727,4.95238095 L2.27272727,2.78571429 C2.27272727,1.24720677 3.49376886,2.82619246e-16 5,0 C6.50623114,-2.82619246e-16 7.72727273,1.24720677 7.72727273,2.78571429 L7.72727273,4.95238095" id="Rectangle-4" stroke="#EA4A35" stroke-width="2"></path>
                    <rect id="Rectangle-6" fill="#FFFFFF" fill-rule="nonzero" x="1.875" y="6.19047619" width="6.25" height="4.95238095"></rect>
                </g>
            </g>
            <g id="term" transform="translate(495.000000, 359.000000)" stroke-width="2">
                <path d="M26,31 L26,0 L2.73684211,0 C1.22532595,0 0,1.20688459 0,2.69565217 L0,28.3043478 C0,29.7931154 1.22532595,31 2.73684211,31 L26,31 Z" id="Rectangle-10" stroke="#040404" fill="#FFFFFF"></path>
                <path d="M6,1 L6,30" id="Line-5" stroke="#040404" stroke-linecap="square"></path>
                <path d="M11,10 L21,10" id="Line-6" stroke="#EA4A35" stroke-linecap="square"></path>
                <path d="M11,15 L21,15" id="Line-6" stroke="#EA4A35" stroke-linecap="square"></path>
                <path d="M11,20 L15,20" id="Line-6" stroke="#EA4A35" stroke-linecap="square"></path>
            </g>
        </g>
        <rect id="Rectangle-25" fill-opacity="0.05" fill="#333333" fill-rule="nonzero" transform="translate(632.000000, 39.000000) rotate(-315.000000) translate(-632.000000, -39.000000) " x="620" y="27" width="24" height="24" rx="4"></rect>
        <circle id="Oval-3" fill-opacity="0.05" fill="#333333" fill-rule="nonzero" cx="157" cy="387" r="14"></circle>
        <polygon id="Star" fill-opacity="0.05" fill="#333333" fill-rule="nonzero" points="623.5 132.423877 617.010643 135 617.451953 128.023594 613 122.63932 619.762101 120.903788 623.5 115 627.237899 120.903788 634 122.63932 629.548047 128.023594 629.989357 135"></polygon>
    </g>
</svg>